# xmcd
# Track frame offsets:
# 150
# 23968
# 40749
# 59309
# 76662
# 93769
# 111960
# 126431
# 140890
# 155612
# 178437
# 191571
#
# Disc length: 2805 seconds
# Revision: 0
# Processed by: cddbd v1.5.2PL0 Copyright (c) Steve Scherf et al.
# Submitted via: VisiTrax 2.10.3.257 - For more info visit www.synapsa.com
#
DISCID=a60af30c
DTITLE=Borderers, The and the rough Diamonds - A Time for Change
DYEAR=2007
DGENRE=
TTITLE0=Higher Ground Guest Serena Ryder
TTITLE1=Jump right in
TTITLE2=Hallelujah
TTITLE3=My Angel of Love
TTITLE4=John Barleycorn
TTITLE5=Love is the Answer
TTITLE6=The Simple things in Life
TTITLE7=You left me so Broken
TTITLE8=Let me Know how You're Going
TTITLE9=Galway Shawl
TTITLE10=No We're not going home
TTITLE11=A song of Hope
EXTD=
EXTT0=
EXTT1=
EXTT2=
EXTT3=
EXTT4=
EXTT5=
EXTT6=
EXTT7=
EXTT8=
EXTT9=
EXTT10=
EXTT11=
PLAYORDER=
